<svg xmlns="http://www.w3.org/2000/svg" xmlns:xlink="http://www.w3.org/1999/xlink" width="2623" zoomAndPan="magnify" viewBox="0 0 1967.25 283.499996" height="378" preserveAspectRatio="xMidYMid meet" version="1.0"><defs><g/><clipPath id="8d486c4b9d"><path d="M 1.355469 0 L 1965.144531 0 L 1965.144531 283 L 1.355469 283 Z M 1.355469 0 " clip-rule="nonzero"/></clipPath><clipPath id="60e3637b11"><path d="M 284 29 L 1964.144531 29 L 1964.144531 251 L 284 251 Z M 284 29 " clip-rule="nonzero"/></clipPath><clipPath id="4ffc639979"><rect x="0" width="1681" y="0" height="222"/></clipPath><clipPath id="7e5e1d60be"><path d="M 0.355469 0 L 320 0 L 320 283 L 0.355469 283 Z M 0.355469 0 " clip-rule="nonzero"/></clipPath><clipPath id="02ce97c5d5"><path d="M 1 22 L 241 22 L 241 261 L 1 261 Z M 1 22 " clip-rule="nonzero"/></clipPath><clipPath id="f53297cf80"><path d="M 1.804688 22.324219 L 240.125 22.324219 L 240.125 260.640625 L 1.808594 260.640625 Z M 1.804688 22.324219 " clip-rule="nonzero"/></clipPath><clipPath id="aafad4cba3"><path d="M 120.964844 22.324219 C 55.15625 22.324219 1.804688 75.671875 1.804688 141.484375 C 1.808594 207.292969 55.15625 260.640625 120.964844 260.640625 C 186.773438 260.640625 240.125 207.292969 240.125 141.484375 C 240.125 75.671875 186.773438 22.324219 120.964844 22.324219 Z M 120.964844 22.324219 " clip-rule="nonzero"/></clipPath><clipPath id="d2bc9e4bda"><path d="M 0.792969 0.28125 L 239.175781 0.28125 L 239.175781 238.660156 L 0.792969 238.660156 Z M 0.792969 0.28125 " clip-rule="nonzero"/></clipPath><clipPath id="d6746a61f9"><path d="M 0.804688 0.324219 L 239.125 0.324219 L 239.125 238.640625 L 0.808594 238.640625 Z M 0.804688 0.324219 " clip-rule="nonzero"/></clipPath><clipPath id="e7c225d947"><path d="M 119.964844 0.324219 C 54.15625 0.324219 0.804688 53.671875 0.804688 119.484375 C 0.808594 185.292969 54.15625 238.640625 119.964844 238.640625 C 185.773438 238.640625 239.125 185.292969 239.125 119.484375 C 239.125 53.671875 185.773438 0.324219 119.964844 0.324219 Z M 119.964844 0.324219 " clip-rule="nonzero"/></clipPath><clipPath id="0fc1e7d5f6"><rect x="0" width="240" y="0" height="239"/></clipPath><clipPath id="461921f825"><path d="M 42 114 L 166 114 L 166 238 L 42 238 Z M 42 114 " clip-rule="nonzero"/></clipPath><clipPath id="bb3fc2667b"><path d="M 68.628906 96.273438 L 183.8125 140.511719 L 139.574219 255.695312 L 24.390625 211.453125 Z M 68.628906 96.273438 " clip-rule="nonzero"/></clipPath><clipPath id="663622f2c8"><path d="M 126.222656 118.390625 C 94.414062 106.175781 58.726562 122.058594 46.511719 153.863281 C 34.292969 185.671875 50.175781 221.359375 81.980469 233.574219 C 113.789062 245.789062 149.476562 229.910156 161.691406 198.101562 C 173.910156 166.296875 158.027344 130.609375 126.222656 118.390625 Z M 126.222656 118.390625 " clip-rule="nonzero"/></clipPath><clipPath id="57faf58c54"><path d="M 0 0 L 124 0 L 124 124 L 0 124 Z M 0 0 " clip-rule="nonzero"/></clipPath><clipPath id="a7556d3715"><path d="M 26.628906 -17.726562 L 141.8125 26.511719 L 97.574219 141.695312 L -17.609375 97.453125 Z M 26.628906 -17.726562 " clip-rule="nonzero"/></clipPath><clipPath id="7cab7f20de"><path d="M 84.222656 4.390625 C 52.414062 -7.824219 16.726562 8.058594 4.511719 39.863281 C -7.707031 71.671875 8.175781 107.359375 39.980469 119.574219 C 71.789062 131.789062 107.476562 115.910156 119.691406 84.101562 C 131.910156 52.296875 116.027344 16.609375 84.222656 4.390625 Z M 84.222656 4.390625 " clip-rule="nonzero"/></clipPath><clipPath id="4d61f035ce"><rect x="0" width="124" y="0" height="124"/></clipPath><clipPath id="05f9e9e70b"><path d="M 120 58 L 151 58 L 151 131 L 120 131 Z M 120 58 " clip-rule="nonzero"/></clipPath><clipPath id="8b812ee130"><path d="M 117.292969 129.257812 L 145.054688 56.984375 L 153.34375 60.167969 L 125.582031 132.441406 Z M 117.292969 129.257812 " clip-rule="nonzero"/></clipPath><clipPath id="da3dd2a209"><path d="M 139.1875 72.257812 C 142.421875 63.835938 146.898438 57.722656 149.1875 58.601562 C 151.476562 59.480469 150.710938 67.019531 147.476562 75.441406 L 131.441406 117.195312 C 128.207031 125.617188 123.726562 131.730469 121.4375 130.851562 C 119.148438 129.972656 119.917969 122.433594 123.148438 114.011719 Z M 139.1875 72.257812 " clip-rule="nonzero"/></clipPath><clipPath id="cd9d79422a"><path d="M 0 0 L 31 0 L 31 73 L 0 73 Z M 0 0 " clip-rule="nonzero"/></clipPath><clipPath id="62ef0c399a"><path d="M -2.707031 71.257812 L 25.054688 -1.015625 L 33.34375 2.167969 L 5.582031 74.441406 Z M -2.707031 71.257812 " clip-rule="nonzero"/></clipPath><clipPath id="f9e0c4e965"><path d="M 19.1875 14.257812 C 22.421875 5.835938 26.898438 -0.277344 29.1875 0.601562 C 31.476562 1.480469 30.710938 9.019531 27.476562 17.441406 L 11.441406 59.195312 C 8.207031 67.617188 3.726562 73.730469 1.4375 72.851562 C -0.851562 71.972656 -0.0820312 64.433594 3.148438 56.011719 Z M 19.1875 14.257812 " clip-rule="nonzero"/></clipPath><clipPath id="836e192ec5"><rect x="0" width="31" y="0" height="73"/></clipPath><clipPath id="e761a59c9c"><path d="M 134 45 L 158 45 L 158 90 L 134 90 Z M 134 45 " clip-rule="nonzero"/></clipPath><clipPath id="da75cb0400"><path d="M 130.484375 87.03125 L 147.394531 43.007812 L 160.953125 48.214844 L 144.046875 92.238281 Z M 130.484375 87.03125 " clip-rule="nonzero"/></clipPath><clipPath id="2f169553ad"><path d="M 141.519531 58.296875 C 144.753906 49.878906 150.410156 44.21875 154.15625 45.65625 C 157.902344 47.09375 158.316406 55.085938 155.082031 63.507812 L 149.902344 76.992188 C 146.667969 85.414062 141.011719 91.074219 137.265625 89.636719 C 133.519531 88.195312 133.105469 80.203125 136.339844 71.785156 Z M 141.519531 58.296875 " clip-rule="nonzero"/></clipPath><clipPath id="117818e918"><path d="M 0 0 L 24 0 L 24 45 L 0 45 Z M 0 0 " clip-rule="nonzero"/></clipPath><clipPath id="5baae81077"><path d="M -3.515625 42.03125 L 13.394531 -1.992188 L 26.953125 3.214844 L 10.046875 47.238281 Z M -3.515625 42.03125 " clip-rule="nonzero"/></clipPath><clipPath id="610be8de91"><path d="M 7.519531 13.296875 C 10.753906 4.878906 16.410156 -0.78125 20.15625 0.65625 C 23.902344 2.09375 24.316406 10.085938 21.082031 18.507812 L 15.902344 31.992188 C 12.667969 40.414062 7.011719 46.074219 3.265625 44.636719 C -0.480469 43.195312 -0.894531 35.203125 2.339844 26.785156 Z M 7.519531 13.296875 " clip-rule="nonzero"/></clipPath><clipPath id="1bf918ab32"><rect x="0" width="24" y="0" height="45"/></clipPath><clipPath id="2a7212c417"><path d="M 114 103 L 136 103 L 136 126 L 114 126 Z M 114 103 " clip-rule="nonzero"/></clipPath><clipPath id="781914cca3"><path d="M 121.625 100.042969 L 141.949219 107.847656 L 135.128906 125.605469 L 114.804688 117.800781 Z M 121.625 100.042969 " clip-rule="nonzero"/></clipPath><clipPath id="5bb37b308c"><path d="M 131.773438 103.9375 L 135.097656 125.59375 L 114.804688 117.800781 Z M 131.773438 103.9375 " clip-rule="nonzero"/></clipPath><clipPath id="6b85506be4"><path d="M 0.636719 0.738281 L 21.238281 0.738281 L 21.238281 22.777344 L 0.636719 22.777344 Z M 0.636719 0.738281 " clip-rule="nonzero"/></clipPath><clipPath id="7614a6396b"><path d="M 7.625 -2.957031 L 27.949219 4.847656 L 21.128906 22.605469 L 0.804688 14.800781 Z M 7.625 -2.957031 " clip-rule="nonzero"/></clipPath><clipPath id="990428d947"><path d="M 17.773438 0.9375 L 21.097656 22.59375 L 0.804688 14.800781 Z M 17.773438 0.9375 " clip-rule="nonzero"/></clipPath><clipPath id="907019877d"><rect x="0" width="22" y="0" height="23"/></clipPath><clipPath id="5090892ab3"><path d="M 146 51 L 155 51 L 155 59 L 146 59 Z M 146 51 " clip-rule="nonzero"/></clipPath><clipPath id="f5b9a8add9"><path d="M 148.375 50.285156 L 155.351562 52.964844 L 152.671875 59.941406 L 145.695312 57.261719 Z M 148.375 50.285156 " clip-rule="nonzero"/></clipPath><clipPath id="17e46cffe4"><path d="M 151.863281 51.625 C 149.9375 50.886719 147.777344 51.847656 147.035156 53.773438 C 146.296875 55.703125 147.257812 57.863281 149.183594 58.601562 C 151.109375 59.34375 153.273438 58.382812 154.011719 56.453125 C 154.753906 54.527344 153.789062 52.367188 151.863281 51.625 Z M 151.863281 51.625 " clip-rule="nonzero"/></clipPath><clipPath id="7354a84933"><path d="M 0.261719 0 L 8.886719 0 L 8.886719 8 L 0.261719 8 Z M 0.261719 0 " clip-rule="nonzero"/></clipPath><clipPath id="3b1ffcf4e2"><path d="M 2.375 -0.714844 L 9.351562 1.964844 L 6.671875 8.941406 L -0.304688 6.261719 Z M 2.375 -0.714844 " clip-rule="nonzero"/></clipPath><clipPath id="5608cb976b"><path d="M 5.863281 0.625 C 3.9375 -0.113281 1.777344 0.847656 1.035156 2.773438 C 0.296875 4.703125 1.257812 6.863281 3.183594 7.601562 C 5.109375 8.34375 7.273438 7.382812 8.011719 5.453125 C 8.753906 3.527344 7.789062 1.367188 5.863281 0.625 Z M 5.863281 0.625 " clip-rule="nonzero"/></clipPath><clipPath id="5d24b9f127"><rect x="0" width="9" y="0" height="8"/></clipPath><clipPath id="66a6e32549"><path d="M 65 169 L 112 169 L 112 223 L 65 223 Z M 65 169 " clip-rule="nonzero"/></clipPath><clipPath id="ecd4768b00"><path d="M 84.367188 159.550781 L 130.007812 179.050781 L 111.3125 222.8125 L 65.667969 203.3125 Z M 84.367188 159.550781 " clip-rule="nonzero"/></clipPath><clipPath id="64eaf7eb66"><path d="M 107.160156 169.289062 L 111.253906 222.789062 L 65.667969 203.3125 Z M 107.160156 169.289062 " clip-rule="nonzero"/></clipPath><clipPath id="21e8958cf5"><path d="M 0.523438 0.140625 L 46.28125 0.140625 L 46.28125 53.808594 L 0.523438 53.808594 Z M 0.523438 0.140625 " clip-rule="nonzero"/></clipPath><clipPath id="dd55e1cf5f"><path d="M 19.367188 -9.449219 L 65.007812 10.050781 L 46.3125 53.8125 L 0.667969 34.3125 Z M 19.367188 -9.449219 " clip-rule="nonzero"/></clipPath><clipPath id="ddfaa7030f"><path d="M 42.160156 0.289062 L 46.253906 53.789062 L 0.667969 34.3125 Z M 42.160156 0.289062 " clip-rule="nonzero"/></clipPath><clipPath id="64da217738"><rect x="0" width="47" y="0" height="54"/></clipPath><clipPath id="a8ad5c154d"><path d="M 60 201 L 110 201 L 110 241 L 60 241 Z M 60 201 " clip-rule="nonzero"/></clipPath><clipPath id="6d162f0abb"><path d="M 68.6875 196.246094 L 114.371094 215.761719 L 101.425781 246.0625 L 55.746094 226.542969 Z M 68.6875 196.246094 " clip-rule="nonzero"/></clipPath><clipPath id="bb6117dbcf"><path d="M 83.835938 202.71875 L 99.125 209.25 C 107.492188 212.824219 111.375 222.503906 107.800781 230.871094 C 104.226562 239.238281 94.546875 243.121094 86.179688 239.546875 L 70.894531 233.015625 C 62.527344 229.441406 58.640625 219.761719 62.214844 211.394531 C 65.789062 203.027344 75.472656 199.144531 83.835938 202.71875 Z M 83.835938 202.71875 " clip-rule="nonzero"/></clipPath><clipPath id="6f7809e62f"><path d="M 0 0 L 50 0 L 50 40 L 0 40 Z M 0 0 " clip-rule="nonzero"/></clipPath><clipPath id="6b93e870aa"><path d="M 8.6875 -4.753906 L 54.371094 14.761719 L 41.425781 45.0625 L -4.253906 25.542969 Z M 8.6875 -4.753906 " clip-rule="nonzero"/></clipPath><clipPath id="b6e7ef5bcb"><path d="M 23.835938 1.71875 L 39.125 8.25 C 47.492188 11.824219 51.375 21.503906 47.800781 29.871094 C 44.226562 38.238281 34.546875 42.121094 26.179688 38.546875 L 10.894531 32.015625 C 2.527344 28.441406 -1.359375 18.761719 2.214844 10.394531 C 5.789062 2.027344 15.472656 -1.855469 23.835938 1.71875 Z M 23.835938 1.71875 " clip-rule="nonzero"/></clipPath><clipPath id="5eb1221334"><rect x="0" width="50" y="0" height="40"/></clipPath><clipPath id="6e8e76f652"><path d="M 95 166 L 113 166 L 113 188 L 95 188 Z M 95 166 " clip-rule="nonzero"/></clipPath><clipPath id="f9d80222d6"><path d="M 102.445312 165.429688 L 113.207031 170.027344 L 105.503906 188.058594 L 94.742188 183.460938 Z M 102.445312 165.429688 " clip-rule="nonzero"/></clipPath><clipPath id="74bea0fa39"><path d="M 105.199219 166.605469 L 110.453125 168.851562 C 111.972656 169.5 112.679688 171.261719 112.027344 172.78125 L 106.679688 185.304688 C 106.027344 186.824219 104.269531 187.53125 102.75 186.878906 L 97.496094 184.636719 C 95.976562 183.988281 95.269531 182.226562 95.917969 180.707031 L 101.269531 168.183594 C 101.917969 166.664062 103.679688 165.957031 105.199219 166.605469 Z M 105.199219 166.605469 " clip-rule="nonzero"/></clipPath><clipPath id="965cf40521"><path d="M 0.230469 0 L 17.71875 0 L 17.71875 21.589844 L 0.230469 21.589844 Z M 0.230469 0 " clip-rule="nonzero"/></clipPath><clipPath id="117fbc913a"><path d="M 7.445312 -0.570312 L 18.207031 4.027344 L 10.503906 22.058594 L -0.257812 17.460938 Z M 7.445312 -0.570312 " clip-rule="nonzero"/></clipPath><clipPath id="90a7e097a4"><path d="M 10.199219 0.605469 L 15.453125 2.851562 C 16.972656 3.5 17.679688 5.261719 17.027344 6.78125 L 11.679688 19.304688 C 11.027344 20.824219 9.269531 21.53125 7.75 20.878906 L 2.496094 18.636719 C 0.976562 17.988281 0.269531 16.226562 0.917969 14.707031 L 6.269531 2.183594 C 6.917969 0.664062 8.679688 -0.0429688 10.199219 0.605469 Z M 10.199219 0.605469 " clip-rule="nonzero"/></clipPath><clipPath id="041d7a40ad"><rect x="0" width="18" y="0" height="22"/></clipPath><clipPath id="850da6cadf"><path d="M 103 143 L 114 143 L 114 154 L 103 154 Z M 103 143 " clip-rule="nonzero"/></clipPath><clipPath id="3b2f6047d4"><path d="M 104.171875 143.367188 L 113.9375 143.824219 L 113.484375 153.585938 L 103.71875 153.132812 Z M 104.171875 143.367188 " clip-rule="nonzero"/></clipPath><clipPath id="c70256b9d3"><path d="M 109.054688 143.59375 C 106.359375 143.46875 104.070312 145.554688 103.945312 148.25 C 103.820312 150.945312 105.902344 153.234375 108.601562 153.359375 C 111.296875 153.484375 113.585938 151.402344 113.710938 148.707031 C 113.835938 146.007812 111.75 143.722656 109.054688 143.59375 Z M 109.054688 143.59375 " clip-rule="nonzero"/></clipPath><clipPath id="575154f823"><path d="M 0.617188 0.265625 L 10.917969 0.265625 L 10.917969 10.570312 L 0.617188 10.570312 Z M 0.617188 0.265625 " clip-rule="nonzero"/></clipPath><clipPath id="25a0ca7b1d"><path d="M 1.171875 0.367188 L 10.9375 0.824219 L 10.484375 10.585938 L 0.71875 10.132812 Z M 1.171875 0.367188 " clip-rule="nonzero"/></clipPath><clipPath id="5531fce4a5"><path d="M 6.054688 0.59375 C 3.359375 0.46875 1.070312 2.554688 0.945312 5.25 C 0.820312 7.945312 2.902344 10.234375 5.601562 10.359375 C 8.296875 10.484375 10.585938 8.402344 10.710938 5.707031 C 10.835938 3.007812 8.75 0.722656 6.054688 0.59375 Z M 6.054688 0.59375 " clip-rule="nonzero"/></clipPath><clipPath id="69da09a96f"><rect x="0" width="11" y="0" height="11"/></clipPath><clipPath id="e059a35b63"><path d="M 108 150 L 116 150 L 116 157 L 108 157 Z M 108 150 " clip-rule="nonzero"/></clipPath><clipPath id="1495cebe20"><path d="M 108.761719 149.925781 L 115.628906 150.246094 L 115.308594 157.113281 L 108.441406 156.792969 Z M 108.761719 149.925781 " clip-rule="nonzero"/></clipPath><clipPath id="4efae33ef7"><path d="M 112.195312 150.085938 C 110.296875 149.996094 108.6875 151.460938 108.601562 153.359375 C 108.511719 155.257812 109.976562 156.867188 111.875 156.953125 C 113.773438 157.042969 115.382812 155.578125 115.46875 153.679688 C 115.558594 151.78125 114.09375 150.171875 112.195312 150.085938 Z M 112.195312 150.085938 " clip-rule="nonzero"/></clipPath><clipPath id="57f21ec00e"><path d="M 0.40625 0 L 7.59375 0 L 7.59375 7 L 0.40625 7 Z M 0.40625 0 " clip-rule="nonzero"/></clipPath><clipPath id="2acafa42cb"><path d="M 0.761719 -0.0742188 L 7.628906 0.246094 L 7.308594 7.113281 L 0.441406 6.792969 Z M 0.761719 -0.0742188 " clip-rule="nonzero"/></clipPath><clipPath id="59ee2d820e"><path d="M 4.195312 0.0859375 C 2.296875 -0.00390625 0.6875 1.460938 0.601562 3.359375 C 0.511719 5.257812 1.976562 6.867188 3.875 6.953125 C 5.773438 7.042969 7.382812 5.578125 7.46875 3.679688 C 7.558594 1.78125 6.09375 0.171875 4.195312 0.0859375 Z M 4.195312 0.0859375 " clip-rule="nonzero"/></clipPath><clipPath id="d9012079be"><rect x="0" width="8" y="0" height="7"/></clipPath><clipPath id="67912886e6"><path d="M 120 138 L 133 138 L 133 151 L 120 151 Z M 120 138 " clip-rule="nonzero"/></clipPath><clipPath id="5f666a2e11"><path d="M 120.933594 138.230469 L 133.167969 138.800781 L 132.597656 151.035156 L 120.363281 150.464844 Z M 120.933594 138.230469 " clip-rule="nonzero"/></clipPath><clipPath id="13cf1160b6"><path d="M 127.050781 138.515625 C 123.671875 138.359375 120.804688 140.96875 120.648438 144.347656 C 120.492188 147.726562 123.101562 150.59375 126.480469 150.75 C 129.859375 150.910156 132.722656 148.296875 132.882812 144.917969 C 133.039062 141.539062 130.429688 138.675781 127.050781 138.515625 Z M 127.050781 138.515625 " clip-rule="nonzero"/></clipPath><clipPath id="2d50ac2188"><path d="M 0.386719 0.234375 L 13 0.234375 L 13 12.933594 L 0.386719 12.933594 Z M 0.386719 0.234375 " clip-rule="nonzero"/></clipPath><clipPath id="6cfef4b79f"><path d="M 0.933594 0.230469 L 13.167969 0.800781 L 12.597656 13.035156 L 0.363281 12.464844 Z M 0.933594 0.230469 " clip-rule="nonzero"/></clipPath><clipPath id="73ccf6b91c"><path d="M 7.050781 0.515625 C 3.671875 0.359375 0.804688 2.96875 0.648438 6.347656 C 0.492188 9.726562 3.101562 12.59375 6.480469 12.75 C 9.859375 12.910156 12.722656 10.296875 12.882812 6.917969 C 13.039062 3.539062 10.429688 0.675781 7.050781 0.515625 Z M 7.050781 0.515625 " clip-rule="nonzero"/></clipPath><clipPath id="ddf116d2c6"><rect x="0" width="13" y="0" height="13"/></clipPath><clipPath id="4488d7589d"><path d="M 133 136 L 139 136 L 139 142 L 133 142 Z M 133 136 " clip-rule="nonzero"/></clipPath><clipPath id="721906748b"><path d="M 133.285156 136.257812 L 138.375 136.496094 L 138.136719 141.582031 L 133.046875 141.347656 Z M 133.285156 136.257812 " clip-rule="nonzero"/></clipPath><clipPath id="37c1280aa4"><path d="M 135.828125 136.378906 C 134.425781 136.3125 133.230469 137.398438 133.167969 138.800781 C 133.101562 140.207031 134.1875 141.398438 135.59375 141.464844 C 136.996094 141.53125 138.1875 140.445312 138.253906 139.039062 C 138.320312 137.632812 137.234375 136.441406 135.828125 136.378906 Z M 135.828125 136.378906 " clip-rule="nonzero"/></clipPath><clipPath id="8c7321aa97"><path d="M 0.0820312 0.078125 L 5.355469 0.078125 L 5.355469 5.589844 L 0.0820312 5.589844 Z M 0.0820312 0.078125 " clip-rule="nonzero"/></clipPath><clipPath id="88bdd3c15b"><path d="M 0.285156 0.257812 L 5.375 0.496094 L 5.136719 5.582031 L 0.046875 5.347656 Z M 0.285156 0.257812 " clip-rule="nonzero"/></clipPath><clipPath id="3aa05f6781"><path d="M 2.828125 0.378906 C 1.425781 0.3125 0.230469 1.398438 0.167969 2.800781 C 0.101562 4.207031 1.1875 5.398438 2.59375 5.464844 C 3.996094 5.53125 5.1875 4.445312 5.253906 3.039062 C 5.320312 1.632812 4.234375 0.441406 2.828125 0.378906 Z M 2.828125 0.378906 " clip-rule="nonzero"/></clipPath><clipPath id="0b1f37d4ca"><rect x="0" width="6" y="0" height="6"/></clipPath><clipPath id="903d30b40e"><path d="M 118 137 L 124 137 L 124 144 L 118 144 Z M 118 137 " clip-rule="nonzero"/></clipPath><clipPath id="a3d49b4555"><path d="M 118.402344 137.863281 L 123.488281 138.097656 L 123.25 143.1875 L 118.164062 142.949219 Z M 118.402344 137.863281 " clip-rule="nonzero"/></clipPath><clipPath id="96babbbb47"><path d="M 120.945312 137.980469 C 119.539062 137.914062 118.347656 139 118.28125 140.40625 C 118.214844 141.8125 119.300781 143.003906 120.707031 143.070312 C 122.113281 143.132812 123.304688 142.046875 123.371094 140.644531 C 123.4375 139.238281 122.351562 138.046875 120.945312 137.980469 Z M 120.945312 137.980469 " clip-rule="nonzero"/></clipPath><clipPath id="110ef50418"><path d="M 0 0.757812 L 5.5 0.757812 L 5.5 6.265625 L 0 6.265625 Z M 0 0.757812 " clip-rule="nonzero"/></clipPath><clipPath id="d27d25b894"><path d="M 0.402344 0.863281 L 5.488281 1.097656 L 5.25 6.1875 L 0.164062 5.949219 Z M 0.402344 0.863281 " clip-rule="nonzero"/></clipPath><clipPath id="cf73662e43"><path d="M 2.945312 0.980469 C 1.539062 0.914062 0.347656 2 0.28125 3.40625 C 0.214844 4.8125 1.300781 6.003906 2.707031 6.070312 C 4.113281 6.132812 5.304688 5.046875 5.371094 3.644531 C 5.4375 2.238281 4.351562 1.046875 2.945312 0.980469 Z M 2.945312 0.980469 " clip-rule="nonzero"/></clipPath><clipPath id="009e0a5900"><rect x="0" width="6" y="0" height="7"/></clipPath><clipPath id="db496f2e77"><rect x="0" width="320" y="0" height="283"/></clipPath><clipPath id="819b73c710"><rect x="0" width="1965" y="0" height="283"/></clipPath></defs><g clip-path="url(#8d486c4b9d)"><g transform="matrix(1, 0, 0, 1, 1, 0)"><g clip-path="url(#819b73c710)"><g clip-path="url(#60e3637b11)"><g transform="matrix(1, 0, 0, 1, 284, 29)"><g clip-path="url(#4ffc639979)"><g fill="#6d2323" fill-opacity="1"><g transform="translate(0.895054, 196.628109)"><g><path d="M 121.96875 -137.375 C 132.875 -137.375 142.363281 -135.898438 150.4375 -132.953125 C 158.519531 -130.015625 165.253906 -126.070312 170.640625 -121.125 C 176.035156 -116.175781 180.046875 -110.597656 182.671875 -104.390625 C 185.304688 -98.191406 186.625 -91.835938 186.625 -85.328125 C 186.625 -78.679688 185.242188 -72.160156 182.484375 -65.765625 C 179.734375 -59.378906 175.660156 -53.617188 170.265625 -48.484375 C 164.878906 -43.347656 158.144531 -39.273438 150.0625 -36.265625 C 141.988281 -33.265625 132.625 -31.765625 121.96875 -31.765625 L 78.9375 -31.765625 C 77.425781 -31.765625 76.234375 -31.414062 75.359375 -30.71875 C 74.484375 -30.03125 74.234375 -28.875 74.609375 -27.25 L 75.171875 -3.953125 L 7.890625 -3.953125 C 7.765625 -18.109375 8.015625 -32.453125 8.640625 -46.984375 C 9.265625 -61.515625 9.859375 -76.296875 10.421875 -91.328125 C 10.992188 -106.367188 10.90625 -121.71875 10.15625 -137.375 Z M 102.234375 -62.765625 C 108.253906 -62.765625 112.859375 -64.582031 116.046875 -68.21875 C 119.242188 -71.851562 120.84375 -75.800781 120.84375 -80.0625 C 120.84375 -84.195312 119.210938 -87.984375 115.953125 -91.421875 C 112.703125 -94.867188 107.753906 -96.59375 101.109375 -96.59375 L 79.125 -96.59375 C 77.488281 -96.59375 76.234375 -96.03125 75.359375 -94.90625 C 74.484375 -93.78125 74.046875 -92.335938 74.046875 -90.578125 L 74.046875 -69.15625 C 74.046875 -67.15625 74.640625 -65.585938 75.828125 -64.453125 C 77.023438 -63.328125 78.0625 -62.765625 78.9375 -62.765625 Z M 102.234375 -62.765625 "/></g></g></g><g fill="#6d2323" fill-opacity="1"><g transform="translate(188.451779, 196.628109)"><g><path d="M 25.5625 -107.3125 L 25.5625 -70.46875 C 30.320312 -73.351562 35.738281 -75.609375 41.8125 -77.234375 C 47.894531 -78.867188 54.003906 -79.6875 60.140625 -79.6875 C 66.648438 -79.6875 72.597656 -78.710938 77.984375 -76.765625 C 83.378906 -74.828125 87.703125 -72.039062 90.953125 -68.40625 C 94.210938 -64.769531 95.84375 -60.382812 95.84375 -55.25 C 95.84375 -54.25 95.65625 -53.28125 95.28125 -52.34375 C 94.90625 -51.40625 94.21875 -50.8125 93.21875 -50.5625 C 90.707031 -53.3125 87.320312 -55.9375 83.0625 -58.4375 C 78.800781 -60.945312 74.070312 -62.984375 68.875 -64.546875 C 63.675781 -66.117188 58.382812 -66.90625 53 -66.90625 C 42.851562 -66.90625 34.613281 -65.304688 28.28125 -62.109375 C 21.957031 -58.921875 17.039062 -54.785156 13.53125 -49.703125 C 10.019531 -44.628906 7.265625 -39.335938 5.265625 -33.828125 C 4.390625 -26.679688 5.796875 -20.507812 9.484375 -15.3125 C 13.179688 -10.113281 18.316406 -6.070312 24.890625 -3.1875 C 31.472656 -0.3125 38.742188 1.09375 46.703125 1.03125 C 54.660156 0.96875 62.457031 -0.753906 70.09375 -4.140625 C 72.351562 -9.273438 74.609375 -14.347656 76.859375 -19.359375 C 79.117188 -24.367188 81.3125 -29.378906 83.4375 -34.390625 C 82.0625 -31.378906 80.085938 -29.59375 77.515625 -29.03125 C 74.953125 -28.46875 72.601562 -28.25 70.46875 -28.375 C 66.46875 -28.625 63.304688 -29.75 60.984375 -31.75 C 58.671875 -33.757812 57.515625 -35.957031 57.515625 -38.34375 C 57.515625 -41.21875 59.015625 -43.84375 62.015625 -46.21875 C 65.023438 -48.601562 69.597656 -49.671875 75.734375 -49.421875 C 78.492188 -49.296875 81.28125 -48.828125 84.09375 -48.015625 C 86.914062 -47.203125 89.265625 -45.945312 91.140625 -44.25 C 93.023438 -42.5625 93.96875 -40.40625 93.96875 -37.78125 C 93.96875 -32.007812 93.875 -26.304688 93.6875 -20.671875 C 93.5 -15.035156 93.28125 -9.460938 93.03125 -3.953125 L 152.234375 -3.953125 C 151.984375 -14.347656 151.796875 -25.148438 151.671875 -36.359375 C 151.546875 -47.578125 151.484375 -59.265625 151.484375 -71.421875 C 151.484375 -78.804688 149.570312 -85.285156 145.75 -90.859375 C 141.925781 -96.441406 136.691406 -101.109375 130.046875 -104.859375 C 123.410156 -108.617188 115.832031 -111.5 107.3125 -113.5 C 98.789062 -115.507812 89.800781 -116.609375 80.34375 -116.796875 C 70.882812 -116.984375 61.488281 -116.296875 52.15625 -114.734375 C 42.820312 -113.171875 33.957031 -110.695312 25.5625 -107.3125 Z M 25.5625 -107.3125 "/></g></g></g><g fill="#6d2323" fill-opacity="1"><g transform="translate(348.194604, 196.628109)"><g><path d="M 91.53125 -3.953125 C 92.03125 -12.460938 92.53125 -21.351562 93.03125 -30.625 C 93.53125 -39.90625 93.78125 -49.492188 93.78125 -59.390625 C 93.78125 -63.398438 92.929688 -66.375 91.234375 -68.3125 C 89.546875 -70.257812 87.539062 -71.515625 85.21875 -72.078125 C 82.90625 -72.640625 80.679688 -72.765625 78.546875 -72.453125 C 76.421875 -72.140625 74.984375 -71.609375 74.234375 -70.859375 L 86.640625 -110.3125 C 93.023438 -113.195312 99.851562 -114.984375 107.125 -115.671875 C 114.394531 -116.359375 121.222656 -115.796875 127.609375 -113.984375 C 133.992188 -112.171875 139.222656 -108.910156 143.296875 -104.203125 C 147.367188 -99.503906 149.40625 -93.148438 149.40625 -85.140625 L 149.40625 -3.953125 Z M 6.953125 -3.953125 C 6.703125 -15.722656 6.734375 -27.625 7.046875 -39.65625 C 7.359375 -51.6875 7.609375 -63.773438 7.796875 -75.921875 C 7.984375 -88.078125 7.578125 -100.296875 6.578125 -112.578125 L 63.515625 -112.578125 C 63.390625 -104.679688 63.453125 -96.878906 63.703125 -89.171875 C 63.960938 -81.472656 64.34375 -73.925781 64.84375 -66.53125 C 64.21875 -60.894531 63.867188 -54.441406 63.796875 -47.171875 C 63.734375 -39.898438 63.828125 -32.535156 64.078125 -25.078125 C 64.335938 -17.628906 64.59375 -10.585938 64.84375 -3.953125 Z M 6.953125 -3.953125 "/></g></g></g><g fill="#6d2323" fill-opacity="1"><g transform="translate(505.11845, 196.628109)"><g><path d="M 6.765625 -3.953125 C 6.765625 -25.117188 7.078125 -47.070312 7.703125 -69.8125 C 8.328125 -92.550781 8.140625 -115.070312 7.140625 -137.375 L 62.390625 -137.375 C 62.265625 -115.457031 62.359375 -93.347656 62.671875 -71.046875 C 62.984375 -48.742188 63.582031 -26.378906 64.46875 -3.953125 Z M 6.765625 -3.953125 "/></g></g></g><g fill="#6d2323" fill-opacity="1"><g transform="translate(575.969129, 196.628109)"><g><path d="M 25.5625 -107.3125 L 25.5625 -70.46875 C 30.320312 -73.351562 35.738281 -75.609375 41.8125 -77.234375 C 47.894531 -78.867188 54.003906 -79.6875 60.140625 -79.6875 C 66.648438 -79.6875 72.597656 -78.710938 77.984375 -76.765625 C 83.378906 -74.828125 87.703125 -72.039062 90.953125 -68.40625 C 94.210938 -64.769531 95.84375 -60.382812 95.84375 -55.25 C 95.84375 -54.25 95.65625 -53.28125 95.28125 -52.34375 C 94.90625 -51.40625 94.21875 -50.8125 93.21875 -50.5625 C 90.707031 -53.3125 87.320312 -55.9375 83.0625 -58.4375 C 78.800781 -60.945312 74.070312 -62.984375 68.875 -64.546875 C 63.675781 -66.117188 58.382812 -66.90625 53 -66.90625 C 42.851562 -66.90625 34.613281 -65.304688 28.28125 -62.109375 C 21.957031 -58.921875 17.039062 -54.785156 13.53125 -49.703125 C 10.019531 -44.628906 7.265625 -39.335938 5.265625 -33.828125 C 4.390625 -26.679688 5.796875 -20.507812 9.484375 -15.3125 C 13.179688 -10.113281 18.316406 -6.070312 24.890625 -3.1875 C 31.472656 -0.3125 38.742188 1.09375 46.703125 1.03125 C 54.660156 0.96875 62.457031 -0.753906 70.09375 -4.140625 C 72.351562 -9.273438 74.609375 -14.347656 76.859375 -19.359375 C 79.117188 -24.367188 81.3125 -29.378906 83.4375 -34.390625 C 82.0625 -31.378906 80.085938 -29.59375 77.515625 -29.03125 C 74.953125 -28.46875 72.601562 -28.25 70.46875 -28.375 C 66.46875 -28.625 63.304688 -29.75 60.984375 -31.75 C 58.671875 -33.757812 57.515625 -35.957031 57.515625 -38.34375 C 57.515625 -41.21875 59.015625 -43.84375 62.015625 -46.21875 C 65.023438 -48.601562 69.597656 -49.671875 75.734375 -49.421875 C 78.492188 -49.296875 81.28125 -48.828125 84.09375 -48.015625 C 86.914062 -47.203125 89.265625 -45.945312 91.140625 -44.25 C 93.023438 -42.5625 93.96875 -40.40625 93.96875 -37.78125 C 93.96875 -32.007812 93.875 -26.304688 93.6875 -20.671875 C 93.5 -15.035156 93.28125 -9.460938 93.03125 -3.953125 L 152.234375 -3.953125 C 151.984375 -14.347656 151.796875 -25.148438 151.671875 -36.359375 C 151.546875 -47.578125 151.484375 -59.265625 151.484375 -71.421875 C 151.484375 -78.804688 149.570312 -85.285156 145.75 -90.859375 C 141.925781 -96.441406 136.691406 -101.109375 130.046875 -104.859375 C 123.410156 -108.617188 115.832031 -111.5 107.3125 -113.5 C 98.789062 -115.507812 89.800781 -116.609375 80.34375 -116.796875 C 70.882812 -116.984375 61.488281 -116.296875 52.15625 -114.734375 C 42.820312 -113.171875 33.957031 -110.695312 25.5625 -107.3125 Z M 25.5625 -107.3125 "/></g></g></g><g fill="#6d2323" fill-opacity="1"><g transform="translate(735.711953, 196.628109)"><g><path d="M 5.640625 -81.9375 C 5.640625 -88.082031 7.644531 -93.441406 11.65625 -98.015625 C 15.664062 -102.585938 21.019531 -106.40625 27.71875 -109.46875 C 34.425781 -112.539062 42.003906 -114.796875 50.453125 -116.234375 C 58.910156 -117.679688 67.648438 -118.40625 76.671875 -118.40625 C 85.691406 -118.40625 94.492188 -117.648438 103.078125 -116.140625 C 111.660156 -114.640625 119.335938 -112.382812 126.109375 -109.375 L 126.109375 -74.984375 C 123.472656 -77.242188 119.835938 -79.09375 115.203125 -80.53125 C 110.566406 -81.96875 105.585938 -83.0625 100.265625 -83.8125 C 94.941406 -84.570312 89.898438 -84.953125 85.140625 -84.953125 C 79.117188 -84.953125 73.976562 -84.226562 69.71875 -82.78125 C 65.457031 -81.34375 63.328125 -78.929688 63.328125 -75.546875 C 63.328125 -73.296875 64.421875 -71.851562 66.609375 -71.21875 C 68.804688 -70.59375 71.410156 -70.28125 74.421875 -70.28125 C 76.929688 -70.28125 79.59375 -70.3125 82.40625 -70.375 C 85.226562 -70.4375 88.144531 -70.46875 91.15625 -70.46875 C 96.664062 -70.46875 102.238281 -69.96875 107.875 -68.96875 C 113.507812 -67.96875 118.675781 -66.242188 123.375 -63.796875 C 128.070312 -61.359375 131.863281 -58.007812 134.75 -53.75 C 137.632812 -49.488281 139.078125 -44.039062 139.078125 -37.40625 C 139.078125 -30.632812 137.007812 -24.773438 132.875 -19.828125 C 128.738281 -14.878906 123.191406 -10.804688 116.234375 -7.609375 C 109.285156 -4.410156 101.457031 -2.09375 92.75 -0.65625 C 84.039062 0.78125 75.113281 1.375 65.96875 1.125 C 56.820312 0.875 48.019531 -0.21875 39.5625 -2.15625 C 31.101562 -4.101562 23.617188 -6.832031 17.109375 -10.34375 L 17.109375 -48.109375 C 19.734375 -45.359375 23.457031 -43.070312 28.28125 -41.25 C 33.101562 -39.4375 38.363281 -38.117188 44.0625 -37.296875 C 49.769531 -36.484375 55.128906 -36.078125 60.140625 -36.078125 C 66.773438 -36.203125 72.035156 -37.109375 75.921875 -38.796875 C 79.804688 -40.492188 81.75 -42.847656 81.75 -45.859375 C 81.75 -49.242188 78.867188 -50.9375 73.109375 -50.9375 L 60.703125 -50.9375 C 55.066406 -50.9375 49.050781 -51.28125 42.65625 -51.96875 C 36.269531 -52.65625 30.253906 -54 24.609375 -56 C 18.972656 -58.007812 14.398438 -61.113281 10.890625 -65.3125 C 7.390625 -69.507812 5.640625 -75.050781 5.640625 -81.9375 Z M 5.640625 -81.9375 "/></g></g></g><g fill="#6d2323" fill-opacity="1"><g transform="translate(880.98407, 196.628109)"><g><path d="M 25.5625 -107.3125 L 25.5625 -70.46875 C 30.320312 -73.351562 35.738281 -75.609375 41.8125 -77.234375 C 47.894531 -78.867188 54.003906 -79.6875 60.140625 -79.6875 C 66.648438 -79.6875 72.597656 -78.710938 77.984375 -76.765625 C 83.378906 -74.828125 87.703125 -72.039062 90.953125 -68.40625 C 94.210938 -64.769531 95.84375 -60.382812 95.84375 -55.25 C 95.84375 -54.25 95.65625 -53.28125 95.28125 -52.34375 C 94.90625 -51.40625 94.21875 -50.8125 93.21875 -50.5625 C 90.707031 -53.3125 87.320312 -55.9375 83.0625 -58.4375 C 78.800781 -60.945312 74.070312 -62.984375 68.875 -64.546875 C 63.675781 -66.117188 58.382812 -66.90625 53 -66.90625 C 42.851562 -66.90625 34.613281 -65.304688 28.28125 -62.109375 C 21.957031 -58.921875 17.039062 -54.785156 13.53125 -49.703125 C 10.019531 -44.628906 7.265625 -39.335938 5.265625 -33.828125 C 4.390625 -26.679688 5.796875 -20.507812 9.484375 -15.3125 C 13.179688 -10.113281 18.316406 -6.070312 24.890625 -3.1875 C 31.472656 -0.3125 38.742188 1.09375 46.703125 1.03125 C 54.660156 0.96875 62.457031 -0.753906 70.09375 -4.140625 C 72.351562 -9.273438 74.609375 -14.347656 76.859375 -19.359375 C 79.117188 -24.367188 81.3125 -29.378906 83.4375 -34.390625 C 82.0625 -31.378906 80.085938 -29.59375 77.515625 -29.03125 C 74.953125 -28.46875 72.601562 -28.25 70.46875 -28.375 C 66.46875 -28.625 63.304688 -29.75 60.984375 -31.75 C 58.671875 -33.757812 57.515625 -35.957031 57.515625 -38.34375 C 57.515625 -41.21875 59.015625 -43.84375 62.015625 -46.21875 C 65.023438 -48.601562 69.597656 -49.671875 75.734375 -49.421875 C 78.492188 -49.296875 81.28125 -48.828125 84.09375 -48.015625 C 86.914062 -47.203125 89.265625 -45.945312 91.140625 -44.25 C 93.023438 -42.5625 93.96875 -40.40625 93.96875 -37.78125 C 93.96875 -32.007812 93.875 -26.304688 93.6875 -20.671875 C 93.5 -15.035156 93.28125 -9.460938 93.03125 -3.953125 L 152.234375 -3.953125 C 151.984375 -14.347656 151.796875 -25.148438 151.671875 -36.359375 C 151.546875 -47.578125 151.484375 -59.265625 151.484375 -71.421875 C 151.484375 -78.804688 149.570312 -85.285156 145.75 -90.859375 C 141.925781 -96.441406 136.691406 -101.109375 130.046875 -104.859375 C 123.410156 -108.617188 115.832031 -111.5 107.3125 -113.5 C 98.789062 -115.507812 89.800781 -116.609375 80.34375 -116.796875 C 70.882812 -116.984375 61.488281 -116.296875 52.15625 -114.734375 C 42.820312 -113.171875 33.957031 -110.695312 25.5625 -107.3125 Z M 25.5625 -107.3125 "/></g></g></g><g fill="#6d2323" fill-opacity="1"><g transform="translate(1040.726895, 196.628109)"><g><path d="M 77.046875 -53.5625 C 77.046875 -50.675781 78.863281 -49.234375 82.5 -49.234375 L 150.71875 -49.234375 L 150.71875 -3.953125 L 7.140625 -3.953125 C 7.265625 -17.859375 7.859375 -32.203125 8.921875 -46.984375 C 9.992188 -61.765625 10.78125 -76.765625 11.28125 -91.984375 C 11.78125 -107.210938 11.085938 -122.34375 9.203125 -137.375 L 78.9375 -137.375 C 78.9375 -123.84375 78.617188 -109.875 77.984375 -95.46875 C 77.359375 -81.0625 77.046875 -67.09375 77.046875 -53.5625 Z M 77.046875 -53.5625 "/></g></g></g><g fill="#6d2323" fill-opacity="1"><g transform="translate(1198.02663, 196.628109)"><g><path d="M 25.5625 -107.3125 L 25.5625 -70.46875 C 30.320312 -73.351562 35.738281 -75.609375 41.8125 -77.234375 C 47.894531 -78.867188 54.003906 -79.6875 60.140625 -79.6875 C 66.648438 -79.6875 72.597656 -78.710938 77.984375 -76.765625 C 83.378906 -74.828125 87.703125 -72.039062 90.953125 -68.40625 C 94.210938 -64.769531 95.84375 -60.382812 95.84375 -55.25 C 95.84375 -54.25 95.65625 -53.28125 95.28125 -52.34375 C 94.90625 -51.40625 94.21875 -50.8125 93.21875 -50.5625 C 90.707031 -53.3125 87.320312 -55.9375 83.0625 -58.4375 C 78.800781 -60.945312 74.070312 -62.984375 68.875 -64.546875 C 63.675781 -66.117188 58.382812 -66.90625 53 -66.90625 C 42.851562 -66.90625 34.613281 -65.304688 28.28125 -62.109375 C 21.957031 -58.921875 17.039062 -54.785156 13.53125 -49.703125 C 10.019531 -44.628906 7.265625 -39.335938 5.265625 -33.828125 C 4.390625 -26.679688 5.796875 -20.507812 9.484375 -15.3125 C 13.179688 -10.113281 18.316406 -6.070312 24.890625 -3.1875 C 31.472656 -0.3125 38.742188 1.09375 46.703125 1.03125 C 54.660156 0.96875 62.457031 -0.753906 70.09375 -4.140625 C 72.351562 -9.273438 74.609375 -14.347656 76.859375 -19.359375 C 79.117188 -24.367188 81.3125 -29.378906 83.4375 -34.390625 C 82.0625 -31.378906 80.085938 -29.59375 77.515625 -29.03125 C 74.953125 -28.46875 72.601562 -28.25 70.46875 -28.375 C 66.46875 -28.625 63.304688 -29.75 60.984375 -31.75 C 58.671875 -33.757812 57.515625 -35.957031 57.515625 -38.34375 C 57.515625 -41.21875 59.015625 -43.84375 62.015625 -46.21875 C 65.023438 -48.601562 69.597656 -49.671875 75.734375 -49.421875 C 78.492188 -49.296875 81.28125 -48.828125 84.09375 -48.015625 C 86.914062 -47.203125 89.265625 -45.945312 91.140625 -44.25 C 93.023438 -42.5625 93.96875 -40.40625 93.96875 -37.78125 C 93.96875 -32.007812 93.875 -26.304688 93.6875 -20.671875 C 93.5 -15.035156 93.28125 -9.460938 93.03125 -3.953125 L 152.234375 -3.953125 C 151.984375 -14.347656 151.796875 -25.148438 151.671875 -36.359375 C 151.546875 -47.578125 151.484375 -59.265625 151.484375 -71.421875 C 151.484375 -78.804688 149.570312 -85.285156 145.75 -90.859375 C 141.925781 -96.441406 136.691406 -101.109375 130.046875 -104.859375 C 123.410156 -108.617188 115.832031 -111.5 107.3125 -113.5 C 98.789062 -115.507812 89.800781 -116.609375 80.34375 -116.796875 C 70.882812 -116.984375 61.488281 -116.296875 52.15625 -114.734375 C 42.820312 -113.171875 33.957031 -110.695312 25.5625 -107.3125 Z M 25.5625 -107.3125 "/></g></g></g><g fill="#6d2323" fill-opacity="1"><g transform="translate(1357.769379, 196.628109)"><g><path d="M 8.078125 -135.875 L 65.03125 -135.875 C 64.65625 -130.988281 64.304688 -125.285156 63.984375 -118.765625 C 63.671875 -112.253906 63.421875 -105.519531 63.234375 -98.5625 C 63.046875 -91.613281 62.890625 -84.972656 62.765625 -78.640625 C 62.640625 -72.316406 62.578125 -66.835938 62.578125 -62.203125 C 62.578125 -57.941406 63.925781 -54.304688 66.625 -51.296875 C 69.320312 -48.296875 72.925781 -45.976562 77.4375 -44.34375 C 81.945312 -42.71875 86.832031 -41.90625 92.09375 -41.90625 C 100.113281 -41.90625 106.15625 -43.628906 110.21875 -47.078125 C 114.289062 -50.523438 116.265625 -54.691406 116.140625 -59.578125 C 116.140625 -63.960938 114.414062 -67.6875 110.96875 -70.75 C 107.53125 -73.820312 102.613281 -75.421875 96.21875 -75.546875 C 91.957031 -75.546875 88.101562 -74.796875 84.65625 -73.296875 C 81.21875 -71.796875 78.9375 -69.289062 77.8125 -65.78125 L 89.828125 -111.828125 C 100.734375 -114.078125 111.195312 -114.445312 121.21875 -112.9375 C 131.238281 -111.4375 140.164062 -108.304688 148 -103.546875 C 155.832031 -98.785156 162.035156 -92.582031 166.609375 -84.9375 C 171.179688 -77.300781 173.46875 -68.347656 173.46875 -58.078125 C 173.46875 -49.679688 171.804688 -41.972656 168.484375 -34.953125 C 165.160156 -27.941406 160.585938 -21.925781 154.765625 -16.90625 C 148.941406 -11.894531 142.300781 -8.007812 134.84375 -5.25 C 127.382812 -2.5 119.585938 -1.125 111.453125 -1.125 C 103.429688 -1.125 95.441406 -2.59375 87.484375 -5.53125 C 79.523438 -8.476562 72.414062 -12.460938 66.15625 -17.484375 C 65.03125 -17.609375 64.117188 -17.382812 63.421875 -16.8125 C 62.734375 -16.25 62.453125 -15.46875 62.578125 -14.46875 L 62.578125 -3.953125 L 6.578125 -3.953125 C 6.453125 -17.859375 6.703125 -32.140625 7.328125 -46.796875 C 7.953125 -61.453125 8.484375 -76.265625 8.921875 -91.234375 C 9.359375 -106.210938 9.078125 -121.09375 8.078125 -135.875 Z M 8.078125 -135.875 "/></g></g></g><g fill="#6d2323" fill-opacity="1"><g transform="translate(1536.869478, 196.628109)"><g><path d="M 5.640625 -81.9375 C 5.640625 -88.082031 7.644531 -93.441406 11.65625 -98.015625 C 15.664062 -102.585938 21.019531 -106.40625 27.71875 -109.46875 C 34.425781 -112.539062 42.003906 -114.796875 50.453125 -116.234375 C 58.910156 -117.679688 67.648438 -118.40625 76.671875 -118.40625 C 85.691406 -118.40625 94.492188 -117.648438 103.078125 -116.140625 C 111.660156 -114.640625 119.335938 -112.382812 126.109375 -109.375 L 126.109375 -74.984375 C 123.472656 -77.242188 119.835938 -79.09375 115.203125 -80.53125 C 110.566406 -81.96875 105.585938 -83.0625 100.265625 -83.8125 C 94.941406 -84.570312 89.898438 -84.953125 85.140625 -84.953125 C 79.117188 -84.953125 73.976562 -84.226562 69.71875 -82.78125 C 65.457031 -81.34375 63.328125 -78.929688 63.328125 -75.546875 C 63.328125 -73.296875 64.421875 -71.851562 66.609375 -71.21875 C 68.804688 -70.59375 71.410156 -70.28125 74.421875 -70.28125 C 76.929688 -70.28125 79.59375 -70.3125 82.40625 -70.375 C 85.226562 -70.4375 88.144531 -70.46875 91.15625 -70.46875 C 96.664062 -70.46875 102.238281 -69.96875 107.875 -68.96875 C 113.507812 -67.96875 118.675781 -66.242188 123.375 -63.796875 C 128.070312 -61.359375 131.863281 -58.007812 134.75 -53.75 C 137.632812 -49.488281 139.078125 -44.039062 139.078125 -37.40625 C 139.078125 -30.632812 137.007812 -24.773438 132.875 -19.828125 C 128.738281 -14.878906 123.191406 -10.804688 116.234375 -7.609375 C 109.285156 -4.410156 101.457031 -2.09375 92.75 -0.65625 C 84.039062 0.78125 75.113281 1.375 65.96875 1.125 C 56.820312 0.875 48.019531 -0.21875 39.5625 -2.15625 C 31.101562 -4.101562 23.617188 -6.832031 17.109375 -10.34375 L 17.109375 -48.109375 C 19.734375 -45.359375 23.457031 -43.070312 28.28125 -41.25 C 33.101562 -39.4375 38.363281 -38.117188 44.0625 -37.296875 C 49.769531 -36.484375 55.128906 -36.078125 60.140625 -36.078125 C 66.773438 -36.203125 72.035156 -37.109375 75.921875 -38.796875 C 79.804688 -40.492188 81.75 -42.847656 81.75 -45.859375 C 81.75 -49.242188 78.867188 -50.9375 73.109375 -50.9375 L 60.703125 -50.9375 C 55.066406 -50.9375 49.050781 -51.28125 42.65625 -51.96875 C 36.269531 -52.65625 30.253906 -54 24.609375 -56 C 18.972656 -58.007812 14.398438 -61.113281 10.890625 -65.3125 C 7.390625 -69.507812 5.640625 -75.050781 5.640625 -81.9375 Z M 5.640625 -81.9375 "/></g></g></g></g></g></g><g clip-path="url(#7e5e1d60be)"><g transform="matrix(1, 0, 0, 1, -0.000000000000000222, 0)"><g clip-path="url(#db496f2e77)"><g clip-path="url(#02ce97c5d5)"><g clip-path="url(#f53297cf80)"><g clip-path="url(#aafad4cba3)"><g transform="matrix(1, 0, 0, 1, 1, 22)"><g clip-path="url(#0fc1e7d5f6)"><g clip-path="url(#d2bc9e4bda)"><g clip-path="url(#d6746a61f9)"><g clip-path="url(#e7c225d947)"><path fill="#6d2323" d="M 0.804688 0.324219 L 239.125 0.324219 L 239.125 238.640625 L 0.808594 238.640625 Z M 0.804688 0.324219 " fill-opacity="1" fill-rule="nonzero"/></g></g></g></g></g></g></g></g><g clip-path="url(#461921f825)"><g clip-path="url(#bb3fc2667b)"><g clip-path="url(#663622f2c8)"><g transform="matrix(1, 0, 0, 1, 42, 114)"><g clip-path="url(#4d61f035ce)"><g clip-path="url(#57faf58c54)"><g clip-path="url(#a7556d3715)"><g clip-path="url(#7cab7f20de)"><path fill="#fef9e1" d="M 26.628906 -17.726562 L 141.8125 26.511719 L 97.574219 141.695312 L -17.609375 97.453125 Z M 26.628906 -17.726562 " fill-opacity="1" fill-rule="nonzero"/></g></g></g></g></g></g></g></g><g clip-path="url(#05f9e9e70b)"><g clip-path="url(#8b812ee130)"><g clip-path="url(#da3dd2a209)"><g transform="matrix(1, 0, 0, 1, 120, 58)"><g clip-path="url(#836e192ec5)"><g clip-path="url(#cd9d79422a)"><g clip-path="url(#62ef0c399a)"><g clip-path="url(#f9e0c4e965)"><path fill="#fef9e1" d="M -2.707031 71.257812 L 25.039062 -0.984375 L 33.328125 2.203125 L 5.582031 74.441406 Z M -2.707031 71.257812 " fill-opacity="1" fill-rule="nonzero"/></g></g></g></g></g></g></g></g><g clip-path="url(#e761a59c9c)"><g clip-path="url(#da75cb0400)"><g clip-path="url(#2f169553ad)"><g transform="matrix(1, 0, 0, 1, 134, 45)"><g clip-path="url(#1bf918ab32)"><g clip-path="url(#117818e918)"><g clip-path="url(#5baae81077)"><g clip-path="url(#610be8de91)"><path fill="#fef9e1" d="M -3.515625 42.03125 L 13.371094 -1.941406 L 26.933594 3.269531 L 10.046875 47.238281 Z M -3.515625 42.03125 " fill-opacity="1" fill-rule="nonzero"/></g></g></g></g></g></g></g></g><g clip-path="url(#2a7212c417)"><g clip-path="url(#781914cca3)"><g clip-path="url(#5bb37b308c)"><g transform="matrix(1, 0, 0, 1, 114, 103)"><g clip-path="url(#907019877d)"><g clip-path="url(#6b85506be4)"><g clip-path="url(#7614a6396b)"><g clip-path="url(#990428d947)"><path fill="#fef9e1" d="M 7.625 -2.957031 L 27.949219 4.847656 L 21.128906 22.605469 L 0.804688 14.800781 Z M 7.625 -2.957031 " fill-opacity="1" fill-rule="nonzero"/></g></g></g></g></g></g></g></g><g clip-path="url(#5090892ab3)"><g clip-path="url(#f5b9a8add9)"><g clip-path="url(#17e46cffe4)"><g transform="matrix(1, 0, 0, 1, 146, 51)"><g clip-path="url(#5d24b9f127)"><g clip-path="url(#7354a84933)"><g clip-path="url(#3b1ffcf4e2)"><g clip-path="url(#5608cb976b)"><path fill="#fef9e1" d="M 2.375 -0.714844 L 9.351562 1.964844 L 6.671875 8.941406 L -0.304688 6.261719 Z M 2.375 -0.714844 " fill-opacity="1" fill-rule="nonzero"/></g></g></g></g></g></g></g></g><g clip-path="url(#66a6e32549)"><g clip-path="url(#ecd4768b00)"><g clip-path="url(#64eaf7eb66)"><g transform="matrix(1, 0, 0, 1, 65, 169)"><g clip-path="url(#64da217738)"><g clip-path="url(#21e8958cf5)"><g clip-path="url(#dd55e1cf5f)"><g clip-path="url(#ddfaa7030f)"><path fill="#6d2323" d="M 19.367188 -9.449219 L 65.007812 10.050781 L 46.3125 53.8125 L 0.667969 34.3125 Z M 19.367188 -9.449219 " fill-opacity="1" fill-rule="nonzero"/></g></g></g></g></g></g></g></g><g clip-path="url(#a8ad5c154d)"><g clip-path="url(#6d162f0abb)"><g clip-path="url(#bb6117dbcf)"><g transform="matrix(1, 0, 0, 1, 60, 201)"><g clip-path="url(#5eb1221334)"><g clip-path="url(#6f7809e62f)"><g clip-path="url(#6b93e870aa)"><g clip-path="url(#b6e7ef5bcb)"><path fill="#6d2323" d="M 8.6875 -4.753906 L 54.253906 14.714844 L 41.308594 45.011719 L -4.253906 25.542969 Z M 8.6875 -4.753906 " fill-opacity="1" fill-rule="nonzero"/></g></g></g></g></g></g></g></g><g clip-path="url(#6e8e76f652)"><g clip-path="url(#f9d80222d6)"><g clip-path="url(#74bea0fa39)"><g transform="matrix(1, 0, 0, 1, 95, 166)"><g clip-path="url(#041d7a40ad)"><g clip-path="url(#965cf40521)"><g clip-path="url(#117fbc913a)"><g clip-path="url(#90a7e097a4)"><path fill="#6d2323" d="M 7.445312 -0.570312 L 18.207031 4.027344 L 10.503906 22.058594 L -0.257812 17.460938 Z M 7.445312 -0.570312 " fill-opacity="1" fill-rule="nonzero"/></g></g></g></g></g></g></g></g><g clip-path="url(#850da6cadf)"><g clip-path="url(#3b2f6047d4)"><g clip-path="url(#c70256b9d3)"><g transform="matrix(1, 0, 0, 1, 103, 143)"><g clip-path="url(#69da09a96f)"><g clip-path="url(#575154f823)"><g clip-path="url(#25a0ca7b1d)"><g clip-path="url(#5531fce4a5)"><path fill="#6d2323" d="M 1.171875 0.367188 L 10.9375 0.824219 L 10.484375 10.585938 L 0.71875 10.132812 Z M 1.171875 0.367188 " fill-opacity="1" fill-rule="nonzero"/></g></g></g></g></g></g></g></g><g clip-path="url(#e059a35b63)"><g clip-path="url(#1495cebe20)"><g clip-path="url(#4efae33ef7)"><g transform="matrix(1, 0, 0, 1, 108, 150)"><g clip-path="url(#d9012079be)"><g clip-path="url(#57f21ec00e)"><g clip-path="url(#2acafa42cb)"><g clip-path="url(#59ee2d820e)"><path fill="#6d2323" d="M 0.761719 -0.0742188 L 7.628906 0.246094 L 7.308594 7.113281 L 0.441406 6.792969 Z M 0.761719 -0.0742188 " fill-opacity="1" fill-rule="nonzero"/></g></g></g></g></g></g></g></g><g clip-path="url(#67912886e6)"><g clip-path="url(#5f666a2e11)"><g clip-path="url(#13cf1160b6)"><g transform="matrix(1, 0, 0, 1, 120, 138)"><g clip-path="url(#ddf116d2c6)"><g clip-path="url(#2d50ac2188)"><g clip-path="url(#6cfef4b79f)"><g clip-path="url(#73ccf6b91c)"><path fill="#6d2323" d="M 0.933594 0.230469 L 13.167969 0.800781 L 12.597656 13.035156 L 0.363281 12.464844 Z M 0.933594 0.230469 " fill-opacity="1" fill-rule="nonzero"/></g></g></g></g></g></g></g></g><g clip-path="url(#4488d7589d)"><g clip-path="url(#721906748b)"><g clip-path="url(#37c1280aa4)"><g transform="matrix(1, 0, 0, 1, 133, 136)"><g clip-path="url(#0b1f37d4ca)"><g clip-path="url(#8c7321aa97)"><g clip-path="url(#88bdd3c15b)"><g clip-path="url(#3aa05f6781)"><path fill="#6d2323" d="M 0.285156 0.257812 L 5.375 0.496094 L 5.136719 5.582031 L 0.046875 5.347656 Z M 0.285156 0.257812 " fill-opacity="1" fill-rule="nonzero"/></g></g></g></g></g></g></g></g><g clip-path="url(#903d30b40e)"><g clip-path="url(#a3d49b4555)"><g clip-path="url(#96babbbb47)"><g transform="matrix(1, 0, 0, 1, 118, 137)"><g clip-path="url(#009e0a5900)"><g clip-path="url(#110ef50418)"><g clip-path="url(#d27d25b894)"><g clip-path="url(#cf73662e43)"><path fill="#6d2323" d="M 0.402344 0.863281 L 5.488281 1.097656 L 5.25 6.1875 L 0.164062 5.949219 Z M 0.402344 0.863281 " fill-opacity="1" fill-rule="nonzero"/></g></g></g></g></g></g></g></g></g></g></g></g></g></g></svg>